<svg width="249" height="52" viewBox="0 0 249 52" fill="none" xmlns="http://www.w3.org/2000/svg">
<g id="Logo">
<path id="Path_716" fill-rule="evenodd" clip-rule="evenodd" d="M21.9286 0C9.81776 0 0 9.81792 0 21.9289C0 34.0399 9.81776 43.8579 21.9286 43.8579H26.3143C27.524 43.8544 28.5037 42.8744 28.5068 41.6646V38.3444H21.9279C18.8075 38.348 15.7509 37.4606 13.1174 35.7867C12.7868 35.5766 12.5933 35.206 12.61 34.8145C12.6267 34.4231 12.8509 34.0703 13.1982 33.889C13.5455 33.7077 13.9632 33.7255 14.2938 33.9357C16.5756 35.3861 19.2242 36.1547 21.9279 36.1512H28.5068V32.8917C28.503 31.6825 27.5235 30.7033 26.3143 30.6998H21.9286C17.0843 30.6998 13.1572 26.7726 13.1572 21.9282C13.1572 17.0838 17.0843 13.1567 21.9286 13.1567C26.7729 13.1567 30.7 17.0838 30.7 21.9282V41.6639C30.7031 42.874 31.6832 43.8541 32.8932 43.8572H41.6626C42.873 43.8537 43.8537 42.8737 43.8579 41.6632V21.9296C43.8579 9.81823 34.0398 0 21.9286 0ZM31.0527 9.50614C30.7366 10.0034 30.0774 10.1503 29.5801 9.83439C23.9325 6.25549 16.5582 7.07209 11.8304 11.7999C7.10264 16.5278 6.28605 23.9022 9.8649 29.5499C10.0787 29.8715 10.102 30.2836 9.92564 30.6272C9.74931 30.9708 9.40097 31.1922 9.01502 31.2059C8.62906 31.2197 8.26583 31.0237 8.06545 30.6935C3.95025 24.2029 4.88789 15.726 10.3222 10.2917C15.7564 4.85731 24.2331 3.91965 30.7237 8.03492C31.2201 8.35092 31.3669 9.00911 31.052 9.50614H31.0527ZM37.2786 38.3455C37.8842 38.3455 38.3752 37.8545 38.3752 37.2489V21.8969C38.3788 18.7764 37.4914 15.7198 35.8175 13.0863C35.6074 12.7556 35.2368 12.5622 34.8454 12.5789C34.4539 12.5955 34.1011 12.8197 33.9198 13.1671C33.7386 13.5144 33.7563 13.932 33.9665 14.2627C35.4169 16.5445 36.1855 19.1931 36.182 21.8969V37.2489C36.182 37.8545 36.673 38.3455 37.2786 38.3455Z" fill="white"/>
<path id="UPQODE" d="M67.58 13.708V33.028C67.58 34.96 68.0553 36.4473 69.006 37.49C69.9567 38.5327 71.352 39.054 73.192 39.054C75.032 39.054 76.4427 38.5327 77.424 37.49C78.4053 36.4473 78.896 34.96 78.896 33.028V13.708H86.762V32.982C86.762 35.8647 86.1487 38.3027 84.922 40.296C83.6953 42.2893 82.0393 43.792 79.954 44.804C77.8993 45.816 75.5993 46.322 73.054 46.322C70.5087 46.322 68.224 45.8313 66.2 44.85C64.2067 43.838 62.6273 42.3353 61.462 40.342C60.2967 38.318 59.714 35.8647 59.714 32.982V13.708H67.58ZM116.896 24.104C116.896 25.9747 116.466 27.692 115.608 29.256C114.749 30.7893 113.43 32.0313 111.652 32.982C109.873 33.9327 107.665 34.408 105.028 34.408H100.152V46H92.2856V13.708H105.028C107.604 13.708 109.781 14.1527 111.56 15.042C113.338 15.9313 114.672 17.158 115.562 18.722C116.451 20.286 116.896 22.08 116.896 24.104ZM104.43 28.152C105.932 28.152 107.052 27.7993 107.788 27.094C108.524 26.3887 108.892 25.392 108.892 24.104C108.892 22.816 108.524 21.8193 107.788 21.114C107.052 20.4087 105.932 20.056 104.43 20.056H100.152V28.152H104.43ZM143.991 51.52L139.851 45.954C138.624 46.1993 137.428 46.322 136.263 46.322C133.227 46.322 130.436 45.6167 127.891 44.206C125.376 42.7953 123.367 40.8327 121.865 38.318C120.393 35.7727 119.657 32.9207 119.657 29.762C119.657 26.6033 120.393 23.7667 121.865 21.252C123.367 18.7373 125.376 16.7747 127.891 15.364C130.436 13.9533 133.227 13.248 136.263 13.248C139.299 13.248 142.074 13.9533 144.589 15.364C147.134 16.7747 149.127 18.7373 150.569 21.252C152.041 23.7667 152.777 26.6033 152.777 29.762C152.777 32.522 152.209 35.052 151.075 37.352C149.971 39.6213 148.422 41.5073 146.429 43.01L153.513 51.52H143.991ZM127.707 29.762C127.707 32.614 128.473 34.8987 130.007 36.616C131.571 38.3027 133.656 39.146 136.263 39.146C138.839 39.146 140.893 38.2873 142.427 36.57C143.991 34.8527 144.773 32.5833 144.773 29.762C144.773 26.91 143.991 24.6407 142.427 22.954C140.893 21.2367 138.839 20.378 136.263 20.378C133.656 20.378 131.571 21.2213 130.007 22.908C128.473 24.5947 127.707 26.8793 127.707 29.762ZM172.515 46.322C169.479 46.322 166.688 45.6167 164.143 44.206C161.628 42.7953 159.619 40.8327 158.117 38.318C156.645 35.7727 155.909 32.9207 155.909 29.762C155.909 26.6033 156.645 23.7667 158.117 21.252C159.619 18.7373 161.628 16.7747 164.143 15.364C166.688 13.9533 169.479 13.248 172.515 13.248C175.551 13.248 178.326 13.9533 180.841 15.364C183.386 16.7747 185.379 18.7373 186.821 21.252C188.293 23.7667 189.029 26.6033 189.029 29.762C189.029 32.9207 188.293 35.7727 186.821 38.318C185.349 40.8327 183.355 42.7953 180.841 44.206C178.326 45.6167 175.551 46.322 172.515 46.322ZM172.515 39.146C175.091 39.146 177.145 38.2873 178.679 36.57C180.243 34.8527 181.025 32.5833 181.025 29.762C181.025 26.91 180.243 24.6407 178.679 22.954C177.145 21.2367 175.091 20.378 172.515 20.378C169.908 20.378 167.823 21.2213 166.259 22.908C164.725 24.5947 163.959 26.8793 163.959 29.762C163.959 32.614 164.725 34.8987 166.259 36.616C167.823 38.3027 169.908 39.146 172.515 39.146ZM205.503 13.708C208.907 13.708 211.881 14.3827 214.427 15.732C216.972 17.0813 218.935 18.9827 220.315 21.436C221.725 23.8587 222.431 26.6647 222.431 29.854C222.431 33.0127 221.725 35.8187 220.315 38.272C218.935 40.7253 216.957 42.6267 214.381 43.976C211.835 45.3253 208.876 46 205.503 46H193.405V13.708H205.503ZM204.997 39.192C207.971 39.192 210.287 38.3793 211.943 36.754C213.599 35.1287 214.427 32.8287 214.427 29.854C214.427 26.8793 213.599 24.564 211.943 22.908C210.287 21.252 207.971 20.424 204.997 20.424H201.271V39.192H204.997ZM234.693 20.01V26.542H245.227V32.614H234.693V39.698H246.607V46H226.827V13.708H246.607V20.01H234.693Z" fill="white"/>
</g>
</svg>
